# xmcd CD database file
#
# Track frame offsets:
#	150
#	14538
#	31748
#	46483
#	63549
#	76225
#	90934
#	103626
#	116372
#	127661
#	141968
#	153577
#	163735
#	172286
#	185334
#	198916
#	213718
#	228247
#	245080
#	277114
#
# Disc length: 4440 seconds
#
# Revision: 0
# Processed by: cddbd v1.5.1PL0 Copyright (c) Steve Scherf et al.
# Submitted via: CDex 1.51
#
DISCID=16115614
DTITLE=Nat King Cole - That's Jazz - Nat King Cole Collection
DYEAR=2000
DGENRE=Jazz
TTITLE0=When I Fall In Love
TTITLE1=The Very Thought Of You
TTITLE2=For All We Know
TTITLE3=These Foolish Things Remind Me Of You
TTITLE4=Let's Fall In Love
TTITLE5=Stardust
TTITLE6=Ramblin' Rose
TTITLE7=Once In A While
TTITLE8=This Can't Be Love
TTITLE9=On The Street Where You Live
TTITLE10=Around The World
TTITLE11=Just One Of Those Things
TTITLE12=Almost Like Being In Love
TTITLE13=There Goes My Heart
TTITLE14=Somewhere Along The Way
TTITLE15=Aint Misbehavin'
TTITLE16=Don't Get Around Much Anymore
TTITLE17=I Got It Bad And That Ain't Good
TTITLE18=Sweet Loraine
TTITLE19=Data
EXTD=YEAR: 2000
EXTT0=1957
EXTT1=1957
EXTT2=1949
EXTT3=1959
EXTT4=1953
EXTT5=1957
EXTT6=1962
EXTT7=1957
EXTT8=
EXTT9=1964
EXTT10=1966
EXTT11=1941
EXTT12=1953
EXTT13=1953
EXTT14=1952
EXTT15=1949
EXTT16=1957
EXTT17=
EXTT18=
EXTT19=
PLAYORDER=
